<svg width="1254" height="1254" viewBox="0 0 1254 1254" fill="none" xmlns="http://www.w3.org/2000/svg">
<g clip-path="url(#clip0_11_767)">
<path d="M313.525 401.857C311.617 359.672 321.666 324.693 350.878 293.294C415.357 223.988 515.722 187.085 608.63 183.044C610.95 182.939 613.272 182.866 615.593 182.823L615.55 606.709C605.937 610.878 599.366 616.217 595.48 626.431C592.202 635.009 592.519 644.549 596.36 652.888C600.103 660.701 606.709 666.769 614.809 669.843C612.354 700.776 611.109 735.255 607.999 765.509C604.681 759.564 602.075 753.539 598.988 747.526C578.919 708.436 544.562 668.588 499.715 659.495C521.071 683.497 533.791 702.675 547.138 732.114C519.153 722.287 502.667 723.787 473.634 728.802C458.755 731.373 437.681 730.559 423.053 726.861C455.729 756.692 473.629 748.928 510.674 755.308C579.199 767.101 591.207 831.755 593.359 890.083C595.587 950.481 592.835 995.932 571.605 1052.84C547.673 1049.93 507.741 1039.82 485.419 1030.47C499.96 1022.38 507.593 1017.47 519.308 1005.22C552.461 967.656 561.637 917.287 559.206 868.377C558.072 845.562 552.617 819.839 534.633 803.925C511.899 783.805 481.157 789.799 452.919 781.264C419.682 771.222 401.309 758.345 377.086 734.827C333.541 734.851 290.911 723.315 259.358 691.861C194.153 626.865 209.635 493.102 271.736 431.552C283.934 419.419 298.055 409.386 313.525 401.857Z" fill="white"/>
<path d="M641.071 415.318C706.018 417.039 779.831 449.332 788.238 521.396C826.985 532.247 854.453 559.532 861.99 599.818C864.097 611.056 863.454 620.026 862.486 631.256C919.657 652.049 919.731 720.297 862.872 734.025C843.45 766.25 816.361 781.319 779.066 786.248C755.817 789.322 735.899 787.179 716.188 804.177C698.591 819.356 692.817 845.495 691.727 867.728C689.327 916.626 698.45 967.625 731.588 1005.28C741.887 1016.32 753.288 1024.35 766.808 1031.12C739.505 1042.18 708.4 1049.17 679.34 1053.47C656.409 992.509 654.297 939.331 658.356 874.102C661.865 817.623 678.74 766.018 741.648 755.119C751.071 753.49 761.56 753.367 771.192 752.296C795.592 749.59 809.651 742.664 827.787 727.149C814.825 729.702 796.841 731.551 783.952 729.561C752.235 724.663 735.176 721.515 704.138 732.059C714.731 705.014 732.225 681.471 750.912 659.575C699.619 670.357 665.502 717.193 646.71 763.158C646.569 758.217 646.202 753.043 645.822 748.102C643.826 722.06 643.11 695.817 641.15 669.794C649.447 665.594 655.362 661.179 659.434 652.392C663.157 644.298 663.512 635.052 660.42 626.694C656.758 616.824 650.249 611.266 641.059 606.968L641.071 415.318Z" fill="white"/>
<path d="M731.588 1005.28C732.47 991.744 733.602 978.604 737.123 965.451C758.56 885.448 825.73 827.022 896.806 790.093C924.556 775.668 952.526 762.723 979.375 746.724C1003.08 732.543 1019.36 719.709 1039.71 701.744C1035.33 720.566 1030.69 738.629 1024.56 757.029C992.356 853.718 928.67 939.233 842.164 993.832C821.842 1006.66 789.824 1023.42 766.808 1031.11C753.288 1024.35 741.887 1016.32 731.588 1005.28Z" fill="#2AAE65"/>
<path d="M214.91 701.646C239.739 726.206 270.948 746.669 301.918 762.68C329.269 776.586 357.484 789.836 383.601 805.891C448.982 846.076 507.011 908.495 517.781 987.2C518.506 992.503 517.934 1000.29 519.308 1005.22C507.593 1017.47 499.96 1022.38 485.419 1030.47C459.926 1021.09 428.876 1005.15 406.23 990.139C304.252 922.553 239.663 820.384 214.91 701.646Z" fill="#2AAE65"/>
<path d="M870.918 149.813C878.835 156.781 888.999 167.572 896.849 175.346L944.1 221.905C941.302 225.024 937.751 228.461 934.769 231.49C938.136 235.044 941.945 238.626 945.472 242.059C951.466 235.888 958.992 225.975 967.405 226.275C974.244 226.391 981.016 230.114 985.755 235.147C1003.26 253.735 992.717 262.562 979.351 275.595C982.045 278.643 985.474 282.012 988.352 284.976L998.455 274.935C1021.87 297.417 1045.61 321.896 1068.85 344.882C1060.29 353.087 1051.71 362.143 1043.28 370.596L1034.18 361.668L972.995 300.757L981.402 292.312C978.347 289.155 975.126 285.998 972.015 282.877C966.021 288.805 949.813 308.417 942.147 308.455C930.948 308.474 913.277 290.122 913.65 279.46C913.95 270.905 931.487 256.128 937.824 249.565L927.305 238.911L918.09 248.039L845.14 176.351C853.112 167.58 862.596 158.47 870.918 149.813Z" fill="#2AAE65"/>
<path d="M834.412 353.252C842.378 356.466 854.073 367.416 857.367 375.696C857.875 376.979 856.308 378.668 855.585 379.675C854.881 379.696 853.277 379.767 852.769 379.368C847.564 375.247 834.749 362.901 832.183 357.604C832.287 355.391 832.826 355.439 834.412 353.252Z" fill="#2AAE65"/>
<path d="M864.249 385.514C865.468 385.579 866.87 385.39 867.856 386.294C872.705 390.76 879.937 398.813 881.394 405.327C881.97 407.912 880.469 409.143 879.177 410.565C875.093 409.33 863.38 393.676 861.519 389.85C862.008 387.327 862.241 387.77 864.249 385.514Z" fill="#2AAE65"/>
<path d="M944.755 365.249C945.545 365.293 948.08 365.39 948.741 366.036C953.272 370.46 958.857 377.742 960.418 383.936C960.835 385.593 959.12 387.174 958.232 388.243C956.873 388.195 954.999 388.224 953.94 387.166C949.617 382.863 943.886 375.276 942.625 369.223C942.324 367.805 943.892 366.215 944.755 365.249Z" fill="#2AAE65"/>
<path d="M921.029 480.986C922.186 481.321 924.268 482.003 925.174 483.271C928.823 488.374 931.585 496.688 931.664 502.953C931.683 504.54 929.932 505.77 928.842 506.681C928.095 506.461 925.786 505.789 925.303 505.064C921.788 499.823 918.91 491.542 918.353 485.293C918.194 483.544 920.031 481.99 921.029 480.986Z" fill="#2AAE65"/>
<path d="M806.485 328.001C811.653 328.9 824.358 338.939 825.209 344.376C824.787 346.477 824.266 346.789 822.821 348.344C818.008 348 805.536 337.198 804.262 332.488C804.44 330.094 804.93 329.813 806.485 328.001Z" fill="#2AAE65"/>
<path d="M920.784 334.845C922.363 334.85 924.219 334.554 925.339 335.798C929.693 340.627 941.412 349.334 935.216 356.091C934.432 356.04 932.546 355.954 931.958 355.48C927.476 351.887 920.159 343.958 918.653 338.59C919.179 336.076 918.892 336.945 920.784 334.845Z" fill="#2AAE65"/>
<path d="M966.18 398.33C973.307 398.848 977.502 410.5 979.192 416.671C979.596 418.155 977.698 419.753 976.767 420.769C972.536 420.378 972.383 419.905 969.977 416.439C966.995 412.148 964.411 407.495 963.535 402.315C963.278 400.821 965.299 399.24 966.18 398.33Z" fill="#2AAE65"/>
<path d="M983.459 430.892C989.803 432.575 993.305 443.616 993.899 449.675C994.052 451.228 991.995 452.562 990.929 453.459C983.845 452.137 980.447 441.047 980.098 434.544C980.018 433.118 982.357 431.675 983.459 430.892Z" fill="#2AAE65"/>
<path d="M712.649 198.155C717.444 198.197 731.459 200.996 732.763 206.583C732.384 209.09 731.986 209.267 730.198 211.252C725.361 211.253 712.104 208.244 710.329 202.747C710.696 200.269 710.959 200.153 712.649 198.155Z" fill="#2AAE65"/>
<path d="M888.662 416.056C893.512 417.558 901.368 430.543 901.509 435.556C900.89 437.544 900.223 437.802 898.563 439.063C897.131 438.625 895.471 438.097 894.608 436.802C892.275 433.323 884.395 423.613 884.787 419.797C885.65 417.864 886.905 417.281 888.662 416.056Z" fill="#2AAE65"/>
<path d="M747.434 208.728C752.706 209.85 765.27 213.206 766.25 219.112C765.564 221.392 764.897 221.725 763.14 223.307C758.051 222.466 744.758 218.92 744.091 212.866C744.893 210.527 745.407 210.362 747.434 208.728Z" fill="#2AAE65"/>
<path d="M906.174 448.669C907.032 448.78 909.003 448.839 909.616 449.445C913.859 453.641 917.429 461.991 918.476 467.8C918.782 469.488 917.19 470.952 916.284 472.096C909.316 470.827 905.28 459.096 903.737 452.808C903.376 451.343 905.256 449.707 906.174 448.669Z" fill="#2AAE65"/>
<path d="M642.865 186.154C649.092 186.054 669.849 185.626 660.346 196.618C654.511 196.052 633.123 197.212 642.865 186.154Z" fill="#2AAE65"/>
<path d="M780.676 222.604C785.746 223.916 798.029 228.684 798.427 234.72C797.661 236.885 796.804 237.29 795.016 238.731C789.861 236.831 778.068 232.777 777.235 226.967C777.964 224.594 778.68 224.299 780.676 222.604Z" fill="#2AAE65"/>
<path d="M743.956 288.192C748.788 288.367 761.634 294.456 763.158 299.693C763.036 301.791 762.252 302.352 760.887 303.976C756.245 303.952 743.044 297.708 741.599 292.714C741.758 290.425 742.462 289.951 743.956 288.192Z" fill="#2AAE65"/>
<path d="M776.011 306.528C781.172 306.776 793.718 314.835 794.698 320.197C794.386 322.359 793.847 322.662 792.353 324.248C787.393 323.421 775.123 315.804 773.77 310.772C773.898 308.69 774.657 308.142 776.011 306.528Z" fill="#2AAE65"/>
<path d="M678.268 190.285C684.146 190.868 705.651 192.648 694.801 202.249C688.445 201.312 668.698 200.573 678.268 190.285Z" fill="#2AAE65"/>
<path d="M677.411 264.406C682.628 264.784 695.376 266.59 696.938 272.397C696.546 274.814 696.142 275.015 694.464 276.96C688.8 276.245 676.187 274.819 674.735 268.882C675.286 266.419 675.58 266.307 677.411 264.406Z" fill="#2AAE65"/>
<path d="M711.112 274.149C715.833 274.658 729.096 278.686 730.247 284.045C729.965 286.251 729.224 286.77 727.761 288.455C723.273 288.209 709.649 283.934 708.516 278.673C708.957 276.215 709.318 276.066 711.112 274.149Z" fill="#2AAE65"/>
<path d="M931.444 517.286C938.81 517.408 938.761 526.911 939.839 532.646C940.58 536.59 940.592 537.821 938.167 540.869C936.14 540.803 936.251 540.851 934.389 540.082C931.181 536.927 929.724 528.778 929.338 524.394C928.952 519.986 928.97 520.356 931.444 517.286Z" fill="#2AAE65"/>
<path d="M864.929 277.78C869.742 278.116 879.79 286.917 881.204 291.767C880.763 294.592 880.904 293.712 878.878 296.229C873.691 296.051 863.227 287.262 862.296 282.001C862.713 279.633 863.196 279.422 864.929 277.78Z" fill="#2AAE65"/>
<path d="M994.934 463.894C996.33 463.908 998.534 463.876 999.526 464.999C1003.2 469.164 1004.95 475.829 1005.29 481.263C1005.4 482.983 1004.01 484.004 1002.97 485.144C1001.39 485.051 999.428 485.296 998.387 483.979C994.909 479.561 993.231 473.285 992.68 467.813C992.509 466.116 993.96 464.982 994.934 463.894Z" fill="#2AAE65"/>
<path d="M1005.45 495.743C1013.02 496.565 1013.05 506.445 1013.78 512.52C1014.11 515.303 1013.12 515.934 1011.34 517.811C1003.03 517.219 1003.17 506.601 1002.58 499.986C1002.42 498.272 1004.31 496.872 1005.45 495.743Z" fill="#2AAE65"/>
<path d="M642.344 259.481C647.763 259.43 660.389 258.842 662.403 264.773C662.183 267.207 661.932 267.331 660.364 269.352C656.445 269.689 646.74 269.006 642.956 267.397C639.032 265.727 640.617 262.228 642.344 259.481Z" fill="#2AAE65"/>
<path d="M1015.32 561.992C1021.05 562.011 1021.91 566.228 1022.12 571.444C1022.3 575.726 1022.54 580.399 1019.58 583.656C1017.5 583.667 1017.47 583.763 1015.46 582.992C1011.42 579.076 1011.09 566.36 1015.32 561.992Z" fill="#2AAE65"/>
<path d="M1012.7 528.903C1020.36 530.73 1019.28 540.584 1019.19 547.023C1019.18 548.646 1017.28 549.775 1016 550.606C1008.41 548.93 1009.17 538.752 1009.38 532.473C1009.45 530.828 1011.46 529.769 1012.7 528.903Z" fill="#2AAE65"/>
<path d="M838.845 257.463C843.762 258.821 853.577 264.881 854.869 270.32C854.587 272.615 853.938 272.962 852.31 274.616C847.546 273.971 837.002 267.093 836.004 261.805C836.42 259.44 837.094 259.113 838.845 257.463Z" fill="#2AAE65"/>
<path d="M937.243 552.662C939.355 552.625 939.435 552.509 941.467 553.305C945.337 557.087 946.225 570.557 942.319 574.803C940.622 574.844 940.598 574.803 938.939 574.398C934.824 571.086 933.906 556.905 937.243 552.662Z" fill="#2AAE65"/>
<path d="M811.971 239.131C816.521 240.672 826.924 246.072 827.542 251.281C826.96 253.598 826.195 253.928 824.346 255.457C819.858 254.154 808.45 248.524 808.493 243.194C809.369 240.894 809.926 240.715 811.971 239.131Z" fill="#2AAE65"/>
<path d="M1017.13 594.897C1018.29 595.263 1020.62 596.164 1021 597.344C1022.86 603.121 1023.39 613.395 1017.64 616.817C1016.29 616.364 1014.17 615.623 1013.6 614.252C1011.66 609.512 1012.64 603.447 1013.67 598.608C1014.09 596.623 1015.59 595.884 1017.13 594.897Z" fill="#2AAE65"/>
<path d="M891.638 301.578C896.261 303.019 905.072 311.493 905.36 316.797C904.699 318.921 903.976 319.225 902.225 320.605C898.049 318.426 888.001 310.049 888.215 305.032C888.968 303.077 889.881 302.747 891.638 301.578Z" fill="#2AAE65"/>
<path d="M730.504 365.288C734.864 366.597 745.793 372.423 746.283 377.414C745.677 379.551 745.016 379.799 743.258 381.161C738.697 379.239 728.667 374.785 727.657 369.586C728.116 367.27 728.802 366.92 730.504 365.288Z" fill="#2AAE65"/>
<path d="M939.19 586.381C940.579 586.466 942.784 586.686 943.519 587.85C946.592 592.699 945.998 602.837 941.945 606.422C939.698 606.019 939.496 606.164 937.732 604.657C935.24 600.233 935.565 590.175 939.19 586.381Z" fill="#2AAE65"/>
<path d="M783.499 405.904C787.454 407.371 795.61 415.104 797.227 419.124C796.688 421.07 794.967 422.022 793.29 423.358C789.181 421.539 780.78 414.376 780.529 409.459C781.197 407.493 781.876 407.194 783.499 405.904Z" fill="#2AAE65"/>
<path d="M701.015 351.883C705.479 351.991 716.268 355.816 717.578 360.907C717.254 363.129 716.556 363.505 714.951 365.093C710.292 363.852 700.409 360.835 698.946 356.084C699.111 353.964 699.693 353.545 701.015 351.883Z" fill="#2AAE65"/>
<path d="M756.827 384.162C761.891 384.578 770.879 391.614 772.386 396.469C771.939 398.955 772.116 398.149 770.341 400.32C765.95 400.412 757.225 392.604 755.272 388.453C755.076 386.473 755.743 385.86 756.827 384.162Z" fill="#2AAE65"/>
<path d="M671.447 341.523C676.352 342.647 686.167 343.766 687.986 348.677C688.01 350.874 687.386 351.42 686.155 353.248C681.201 352.582 670.688 350.882 669.053 345.704C669.396 343.407 669.849 343.18 671.447 341.523Z" fill="#2AAE65"/>
<path d="M1013.51 628.127C1020.41 628.488 1019.93 634.097 1018.62 639.467L1018.34 640.569C1017.61 643.587 1017.8 644.267 1015.56 646.257C1008.18 645.877 1008.66 640.183 1010.18 634.531L1010.5 633.393C1011.31 630.398 1011.21 630.178 1013.51 628.127Z" fill="#2AAE65"/>
<path d="M842.739 490.072C847.613 492 851.134 501.328 851.355 506.316C851.428 507.925 849.518 508.897 848.379 509.772L846.456 509.134C843.884 506.774 841.65 501.618 840.805 498.273C839.513 493.191 839.274 493.319 842.739 490.072Z" fill="#2AAE65"/>
<path d="M811.585 438.678C816.435 439.533 822.319 448.697 823.287 453.418C823.611 454.986 822.038 456.231 821.095 457.262C816.496 456.548 810.692 446.741 809.283 442.385C809.767 439.934 809.553 440.745 811.585 438.678Z" fill="#2AAE65"/>
<path d="M853.204 518.174C858.617 520.251 859.774 528.011 860.325 533.212C860.545 535.26 859.235 536.023 857.912 537.376C851.636 535.999 851.055 527.873 850.467 522.336C850.271 520.488 851.967 519.364 853.204 518.174Z" fill="#2AAE65"/>
<path d="M642.252 336.13C647.138 336.297 655.711 335.919 657.664 340.985C657.48 343.357 657.192 343.557 655.839 345.446C650.984 344.988 642.987 345.408 640.483 340.792C640.47 338.352 640.856 338.094 642.252 336.13Z" fill="#2AAE65"/>
<path d="M829.263 465.158L831.198 465.387C834.706 467.611 838.441 474.371 839.139 478.533C839.427 480.231 838.233 480.773 836.947 481.946C831.32 481.526 828.436 473.834 826.954 469.016C826.471 467.44 828.234 466.195 829.263 465.158Z" fill="#2AAE65"/>
<path d="M858.978 546.513C860.937 546.567 860.846 546.519 862.658 547.225C866.424 550.833 866.748 557.873 864.072 562.169C855.972 561.588 855.445 551.094 858.978 546.513Z" fill="#2AAE65"/>
<path d="M910.007 320.627C911.354 320.85 913.167 321.706 914.036 322.739C917.422 326.785 914.838 329.151 912.23 331.427C909.089 329.417 906.793 328.037 906.174 324.357C906.872 322.26 908.097 321.832 910.007 320.627Z" fill="#2AAE65"/>
<path d="M800.362 424.729C802.621 424.946 803.478 425.268 804.14 427.37C803.148 430.423 803.546 429.422 800.833 431.807C798.647 431.232 797.643 430.589 797.031 428.488C798.096 425.903 797.827 426.671 800.362 424.729Z" fill="#2AAE65"/>
</g>
<defs>
<clipPath id="clip0_11_767">
<rect width="1254" height="1254" fill="white"/>
</clipPath>
</defs>
</svg>
