<svg width="1254" height="1254" viewBox="0 0 1254 1254" fill="none" xmlns="http://www.w3.org/2000/svg">
<g clip-path="url(#clip0_32_96)">
<path d="M0 458.462C0 80.9186 80.9186 0 458.462 0H795.538C1173.08 0 1254 80.9186 1254 458.462V795.538C1254 1173.08 1173.08 1254 795.538 1254H458.462C80.9186 1254 0 1173.08 0 795.538V458.462Z" fill="white"/>
<path d="M312.917 400.911C311.009 358.726 321.058 323.747 350.27 292.348C414.749 223.042 515.114 186.139 608.022 182.097C610.342 181.993 612.664 181.92 614.985 181.877L614.942 605.763C605.329 609.932 598.758 615.271 594.872 625.484C591.594 634.063 591.911 643.602 595.752 651.942C599.495 659.755 606.101 665.823 614.201 668.897C611.746 699.83 610.501 734.309 607.391 764.563C604.073 758.618 601.467 752.593 598.38 746.58C578.312 707.49 543.954 667.641 499.107 658.549C520.463 682.551 533.183 701.729 546.53 731.168C518.545 721.341 502.059 722.841 473.026 727.856C458.147 730.427 437.073 729.613 422.445 725.915C455.121 755.746 473.021 747.982 510.066 754.362C578.591 766.155 590.599 830.808 592.751 889.137C594.979 949.534 592.227 994.986 570.997 1051.89C547.065 1048.98 507.134 1038.88 484.811 1029.52C499.352 1021.43 506.985 1016.53 518.7 1004.27C551.853 966.709 561.029 916.341 558.598 867.43C557.464 844.616 552.009 818.893 534.025 802.979C511.291 782.859 480.549 788.853 452.311 780.318C419.074 770.276 400.701 757.399 376.478 733.881C332.933 733.905 290.303 722.369 258.75 690.915C193.545 625.919 209.027 492.156 271.128 430.606C283.326 418.473 297.447 408.439 312.917 400.911Z" fill="#073923"/>
<path d="M640.463 414.372C705.41 416.093 779.223 448.386 787.63 520.45C826.377 531.301 853.845 558.586 861.383 598.872C863.489 610.109 862.846 619.08 861.878 630.309C919.049 651.103 919.123 719.351 862.264 733.079C842.842 765.304 815.754 780.373 778.458 785.302C755.209 788.376 735.291 786.233 715.581 803.23C697.983 818.409 692.209 844.549 691.119 866.781C688.719 915.68 697.842 966.679 730.98 1004.34C741.279 1015.38 752.68 1023.4 766.2 1030.17C738.897 1041.23 707.792 1048.22 678.732 1052.52C655.801 991.563 653.689 938.384 657.748 873.155C661.257 816.677 678.132 765.071 741.04 754.172C750.463 752.544 760.952 752.421 770.584 751.35C794.984 748.643 809.043 741.718 827.179 726.202C814.217 728.756 796.233 730.605 783.344 728.615C751.627 723.716 734.568 720.569 703.53 731.113C714.123 704.067 731.617 680.524 750.304 658.628C699.012 669.411 664.894 716.246 646.102 762.212C645.961 757.271 645.594 752.097 645.214 747.155C643.218 721.114 642.502 694.871 640.543 668.848C648.839 664.647 654.754 660.233 658.826 651.446C662.549 643.351 662.904 634.106 659.812 625.748C656.15 615.877 649.641 610.319 640.451 606.022L640.463 414.372Z" fill="#073923"/>
<path d="M730.98 1004.34C731.862 990.798 732.994 977.658 736.515 964.505C757.952 884.502 825.122 826.075 896.198 789.147C923.948 774.721 951.918 761.777 978.767 745.778C1002.48 731.597 1018.76 718.763 1039.1 700.798C1034.72 719.62 1030.08 737.683 1023.95 756.083C991.748 852.772 928.062 938.286 841.556 992.886C821.234 1005.71 789.216 1022.48 766.2 1030.17C752.68 1023.4 741.279 1015.38 730.98 1004.34Z" fill="#2AAE65"/>
<path d="M214.302 700.7C239.131 725.259 270.34 745.722 301.31 761.734C328.661 775.64 356.876 788.89 382.994 804.945C448.374 845.13 506.404 907.548 517.173 986.254C517.898 991.557 517.326 999.339 518.7 1004.27C506.985 1016.53 499.352 1021.43 484.811 1029.52C459.319 1020.14 428.268 1004.2 405.622 989.193C303.644 921.607 239.055 819.438 214.302 700.7Z" fill="#2AAE65"/>
<path d="M870.31 148.867C878.227 155.835 888.391 166.626 896.241 174.4L943.492 220.959C940.694 224.078 937.143 227.515 934.161 230.544C937.529 234.098 941.337 237.68 944.864 241.113C950.858 234.942 958.384 225.029 966.797 225.329C973.636 225.445 980.408 229.168 985.148 234.201C1002.65 252.789 992.109 261.616 978.743 274.649C981.437 277.697 984.866 281.066 987.744 284.03L997.847 273.989C1021.26 296.471 1045 320.95 1068.24 343.936C1059.68 352.141 1051.1 361.197 1042.67 369.65L1033.57 360.722L972.387 299.811L980.794 291.366C977.739 288.209 974.518 285.052 971.407 281.931C965.413 287.859 949.205 307.471 941.539 307.509C930.34 307.528 912.669 289.176 913.043 278.514C913.343 269.959 930.879 255.182 937.216 248.619L926.697 237.965L917.482 247.092L844.532 175.405C852.504 166.634 861.989 157.524 870.31 148.867Z" fill="#2AAE65"/>
<path d="M833.804 352.306C841.77 355.52 853.465 366.47 856.759 374.75C857.268 376.032 855.7 377.722 854.977 378.728C854.273 378.75 852.669 378.82 852.161 378.422C846.956 374.301 834.141 361.954 831.575 356.658C831.679 354.445 832.218 354.493 833.804 352.306Z" fill="#2AAE65"/>
<path d="M863.642 384.567C864.86 384.633 866.263 384.444 867.248 385.348C872.098 389.814 879.329 397.867 880.787 404.38C881.362 406.966 879.862 408.196 878.57 409.619C874.486 408.384 862.773 392.73 860.911 388.903C861.401 386.38 861.634 386.823 863.642 384.567Z" fill="#2AAE65"/>
<path d="M944.147 364.303C944.937 364.347 947.472 364.444 948.134 365.09C952.665 369.514 958.249 376.796 959.81 382.99C960.227 384.647 958.512 386.228 957.624 387.297C956.265 387.249 954.391 387.278 953.332 386.22C949.009 381.917 943.278 374.33 942.017 368.277C941.717 366.859 943.284 365.269 944.147 364.303Z" fill="#2AAE65"/>
<path d="M920.421 480.039C921.578 480.374 923.66 481.056 924.566 482.324C928.215 487.428 930.977 495.742 931.057 502.006C931.075 503.594 929.324 504.824 928.234 505.734C927.487 505.515 925.179 504.843 924.695 504.118C921.18 498.876 918.302 490.596 917.745 484.346C917.586 482.597 919.423 481.044 920.421 480.039Z" fill="#2AAE65"/>
<path d="M805.877 327.055C811.045 327.954 823.75 337.992 824.601 343.43C824.179 345.53 823.658 345.842 822.213 347.397C817.401 347.054 804.928 336.252 803.654 331.542C803.832 329.148 804.322 328.866 805.877 327.055Z" fill="#2AAE65"/>
<path d="M920.176 333.899C921.756 333.903 923.611 333.607 924.731 334.851C929.085 339.681 940.804 348.388 934.608 355.145C933.824 355.094 931.938 355.007 931.35 354.533C926.868 350.941 919.551 343.012 918.045 337.643C918.572 335.129 918.284 335.998 920.176 333.899Z" fill="#2AAE65"/>
<path d="M965.572 397.384C972.7 397.902 976.894 409.554 978.584 415.725C978.988 417.208 977.09 418.807 976.159 419.823C971.928 419.432 971.775 418.959 969.369 415.493C966.387 411.202 963.803 406.549 962.927 401.369C962.67 399.875 964.691 398.294 965.572 397.384Z" fill="#2AAE65"/>
<path d="M982.851 429.946C989.195 431.629 992.697 442.67 993.291 448.729C993.444 450.282 991.387 451.616 990.321 452.513C983.237 451.191 979.839 440.101 979.49 433.598C979.41 432.172 981.749 430.729 982.851 429.946Z" fill="#2AAE65"/>
<path d="M712.041 197.208C716.836 197.251 730.851 200.05 732.156 205.637C731.776 208.144 731.378 208.321 729.59 210.306C724.753 210.307 711.496 207.297 709.721 201.801C710.088 199.323 710.351 199.207 712.041 197.208Z" fill="#2AAE65"/>
<path d="M888.055 415.11C892.904 416.611 900.76 429.597 900.901 434.609C900.282 436.597 899.615 436.855 897.956 438.117C896.523 437.679 894.863 437.151 894 435.855C891.667 432.376 883.787 422.666 884.179 418.85C885.042 416.917 886.297 416.335 888.055 415.11Z" fill="#2AAE65"/>
<path d="M746.827 207.782C752.099 208.903 764.663 212.26 765.643 218.166C764.957 220.446 764.29 220.779 762.532 222.361C757.444 221.52 744.151 217.974 743.483 211.92C744.286 209.581 744.8 209.416 746.827 207.782Z" fill="#2AAE65"/>
<path d="M905.566 447.723C906.424 447.834 908.395 447.893 909.008 448.499C913.251 452.694 916.821 461.044 917.868 466.854C918.174 468.542 916.582 470.006 915.676 471.15C908.708 469.881 904.673 458.15 903.13 451.862C902.768 450.397 904.648 448.761 905.566 447.723Z" fill="#2AAE65"/>
<path d="M642.257 185.208C648.484 185.107 669.241 184.68 659.738 195.672C653.903 195.106 632.515 196.266 642.257 185.208Z" fill="#2AAE65"/>
<path d="M780.068 221.658C785.138 222.969 797.421 227.738 797.819 233.773C797.053 235.939 796.196 236.343 794.408 237.785C789.253 235.885 777.46 231.831 776.627 226.02C777.356 223.648 778.072 223.353 780.068 221.658Z" fill="#2AAE65"/>
<path d="M743.349 287.246C748.18 287.421 761.026 293.509 762.55 298.746C762.428 300.845 761.644 301.406 760.279 303.03C755.638 303.006 742.436 296.762 740.991 291.767C741.15 289.479 741.855 289.005 743.349 287.246Z" fill="#2AAE65"/>
<path d="M775.403 305.582C780.564 305.83 793.111 313.889 794.09 319.251C793.778 321.413 793.239 321.716 791.745 323.301C786.785 322.474 774.515 314.858 773.162 309.826C773.29 307.744 774.049 307.196 775.403 305.582Z" fill="#2AAE65"/>
<path d="M677.66 189.338C683.539 189.921 705.043 191.702 694.193 201.303C687.837 200.365 668.09 199.626 677.66 189.338Z" fill="#2AAE65"/>
<path d="M676.803 263.46C682.02 263.838 694.768 265.644 696.33 271.451C695.938 273.868 695.534 274.069 693.856 276.014C688.192 275.299 675.579 273.873 674.127 267.936C674.679 265.473 674.972 265.361 676.803 263.46Z" fill="#2AAE65"/>
<path d="M710.504 273.203C715.225 273.711 728.488 277.739 729.639 283.099C729.357 285.305 728.616 285.823 727.153 287.509C722.665 287.263 709.041 282.988 707.908 277.727C708.349 275.269 708.71 275.12 710.504 273.203Z" fill="#2AAE65"/>
<path d="M930.836 516.34C938.202 516.462 938.153 525.965 939.231 531.7C939.972 535.643 939.984 536.875 937.559 539.923C935.533 539.857 935.643 539.905 933.781 539.136C930.573 535.981 929.116 527.832 928.73 523.447C928.344 519.04 928.362 519.41 930.836 516.34Z" fill="#2AAE65"/>
<path d="M864.321 276.834C869.134 277.17 879.182 285.971 880.596 290.821C880.156 293.646 880.296 292.766 878.27 295.283C873.083 295.105 862.619 286.316 861.688 281.055C862.105 278.687 862.589 278.476 864.321 276.834Z" fill="#2AAE65"/>
<path d="M994.326 462.948C995.722 462.962 997.926 462.93 998.918 464.053C1002.59 468.218 1004.34 474.883 1004.68 480.317C1004.79 482.037 1003.41 483.058 1002.36 484.198C1000.79 484.105 998.82 484.35 997.779 483.032C994.301 478.615 992.624 472.339 992.073 466.867C991.901 465.17 993.352 464.036 994.326 462.948Z" fill="#2AAE65"/>
<path d="M1004.85 494.796C1012.41 495.619 1012.44 505.498 1013.17 511.574C1013.5 514.356 1012.51 514.988 1010.74 516.864C1002.42 516.272 1002.56 505.655 1001.97 499.04C1001.81 497.325 1003.7 495.926 1004.85 494.796Z" fill="#2AAE65"/>
<path d="M641.737 258.535C647.156 258.484 659.781 257.896 661.796 263.827C661.575 266.261 661.324 266.385 659.757 268.406C655.838 268.743 646.133 268.059 642.349 266.451C638.424 264.781 640.01 261.282 641.737 258.535Z" fill="#2AAE65"/>
<path d="M1014.71 561.046C1020.45 561.064 1021.3 565.282 1021.51 570.498C1021.69 574.779 1021.93 579.452 1018.97 582.71C1016.9 582.721 1016.86 582.817 1014.85 582.046C1010.81 578.129 1010.48 565.413 1014.71 561.046Z" fill="#2AAE65"/>
<path d="M1012.09 527.956C1019.75 529.784 1018.67 539.638 1018.59 546.077C1018.57 547.699 1016.68 548.829 1015.39 549.66C1007.8 547.983 1008.56 537.806 1008.78 531.526C1008.84 529.882 1010.85 528.822 1012.09 527.956Z" fill="#2AAE65"/>
<path d="M838.238 256.517C843.154 257.875 852.97 263.934 854.262 269.374C853.98 271.668 853.331 272.015 851.702 273.669C846.938 273.025 836.395 266.146 835.396 260.858C835.813 258.493 836.486 258.166 838.238 256.517Z" fill="#2AAE65"/>
<path d="M936.635 551.716C938.747 551.678 938.827 551.563 940.86 552.359C944.729 556.141 945.617 569.61 941.711 573.857C940.015 573.898 939.99 573.857 938.331 573.452C934.216 570.139 933.298 555.958 936.635 551.716Z" fill="#2AAE65"/>
<path d="M811.363 238.185C815.913 239.726 826.316 245.126 826.934 250.335C826.352 252.652 825.587 252.982 823.738 254.511C819.25 253.208 807.843 247.578 807.885 242.248C808.761 239.948 809.318 239.769 811.363 238.185Z" fill="#2AAE65"/>
<path d="M1016.52 593.951C1017.69 594.317 1020.01 595.218 1020.39 596.398C1022.25 602.175 1022.79 612.448 1017.04 615.871C1015.68 615.418 1013.56 614.677 1013 613.306C1011.05 608.566 1012.03 602.501 1013.06 597.662C1013.49 595.677 1014.99 594.938 1016.52 593.951Z" fill="#2AAE65"/>
<path d="M891.03 300.632C895.653 302.072 904.464 310.547 904.752 315.85C904.091 317.974 903.368 318.278 901.617 319.659C897.441 317.479 887.393 309.102 887.607 304.086C888.361 302.131 889.273 301.801 891.03 300.632Z" fill="#2AAE65"/>
<path d="M729.896 364.342C734.256 365.651 745.185 371.476 745.675 376.467C745.069 378.604 744.408 378.852 742.65 380.215C738.089 378.293 728.059 373.839 727.049 368.64C727.508 366.323 728.194 365.974 729.896 364.342Z" fill="#2AAE65"/>
<path d="M938.582 585.435C939.972 585.52 942.176 585.74 942.911 586.904C945.984 591.753 945.39 601.891 941.337 605.475C939.09 605.073 938.888 605.218 937.124 603.711C934.632 599.287 934.957 589.228 938.582 585.435Z" fill="#2AAE65"/>
<path d="M782.891 404.957C786.847 406.425 795.002 414.158 796.619 418.178C796.08 420.124 794.36 421.076 792.682 422.411C788.573 420.593 780.172 413.429 779.921 408.513C780.589 406.547 781.268 406.247 782.891 404.957Z" fill="#2AAE65"/>
<path d="M700.407 350.937C704.871 351.044 715.66 354.87 716.97 359.961C716.646 362.182 715.948 362.559 714.344 364.147C709.684 362.906 699.801 359.889 698.338 355.138C698.503 353.018 699.085 352.598 700.407 350.937Z" fill="#2AAE65"/>
<path d="M756.219 383.216C761.283 383.632 770.272 390.668 771.778 395.523C771.331 398.008 771.508 397.203 769.733 399.374C765.343 399.466 756.617 391.658 754.664 387.507C754.468 385.527 755.135 384.914 756.219 383.216Z" fill="#2AAE65"/>
<path d="M670.839 340.577C675.744 341.701 685.559 342.819 687.378 347.731C687.402 349.928 686.778 350.474 685.547 352.302C680.593 351.635 670.08 349.936 668.445 344.757C668.788 342.461 669.241 342.234 670.839 340.577Z" fill="#2AAE65"/>
<path d="M1012.9 627.181C1019.8 627.542 1019.32 633.151 1018.01 638.521L1017.73 639.623C1017 642.641 1017.2 643.321 1014.95 645.311C1007.58 644.931 1008.05 639.237 1009.57 633.585L1009.89 632.446C1010.71 629.452 1010.6 629.232 1012.9 627.181Z" fill="#2AAE65"/>
<path d="M842.132 489.126C847.005 491.054 850.526 500.382 850.747 505.37C850.82 506.979 848.91 507.951 847.771 508.826L845.848 508.188C843.277 505.828 841.042 500.672 840.197 497.327C838.905 492.245 838.666 492.372 842.132 489.126Z" fill="#2AAE65"/>
<path d="M810.978 437.732C815.827 438.587 821.711 447.75 822.679 452.472C823.003 454.04 821.43 455.285 820.487 456.316C815.888 455.602 810.084 445.794 808.675 441.439C809.159 438.988 808.945 439.799 810.978 437.732Z" fill="#2AAE65"/>
<path d="M852.596 517.228C858.009 519.304 859.166 527.064 859.717 532.266C859.937 534.314 858.627 535.077 857.304 536.43C851.028 535.053 850.447 526.927 849.859 521.39C849.663 519.542 851.359 518.418 852.596 517.228Z" fill="#2AAE65"/>
<path d="M641.645 335.183C646.531 335.35 655.103 334.972 657.057 340.039C656.873 342.41 656.585 342.61 655.232 344.499C650.376 344.041 642.38 344.462 639.875 339.846C639.863 337.406 640.249 337.147 641.645 335.183Z" fill="#2AAE65"/>
<path d="M828.655 464.212L830.59 464.441C834.098 466.665 837.833 473.425 838.531 477.586C838.819 479.285 837.625 479.827 836.339 480.999C830.712 480.58 827.828 472.888 826.346 468.069C825.863 466.493 827.626 465.249 828.655 464.212Z" fill="#2AAE65"/>
<path d="M858.37 545.567C860.329 545.621 860.237 545.572 862.05 546.278C865.815 549.887 866.14 556.927 863.464 561.222C855.363 560.642 854.837 550.148 858.37 545.567Z" fill="#2AAE65"/>
<path d="M909.399 319.681C910.747 319.904 912.559 320.76 913.428 321.792C916.814 325.839 914.231 328.205 911.622 330.48C908.481 328.47 906.185 327.091 905.566 323.411C906.264 321.314 907.489 320.886 909.399 319.681Z" fill="#2AAE65"/>
<path d="M799.754 423.783C802.013 424 802.87 424.321 803.532 426.423C802.54 429.477 802.938 428.476 800.225 430.86C798.039 430.286 797.035 429.642 796.423 427.542C797.488 424.957 797.219 425.725 799.754 423.783Z" fill="#2AAE65"/>
</g>
<defs>
<clipPath id="clip0_32_96">
<rect width="1254" height="1254" fill="white" transform="translate(-0.60791 -0.946289)"/>
</clipPath>
</defs>
</svg>
