<svg width="895" height="123" viewBox="0 0 895 123" fill="none" xmlns="http://www.w3.org/2000/svg">
<path fill-rule="evenodd" clip-rule="evenodd" d="M365.486 0.596304C398.95 -4.08143 429.864 19.2719 434.519 52.734C439.178 86.2026 415.809 117.1 382.34 121.735C348.901 126.37 318.034 103.029 313.382 69.5914C308.73 36.1535 332.053 5.27431 365.486 0.596304ZM418.528 59.1881C417.418 34.647 396.704 15.6106 372.16 16.5719C347.4 17.5393 328.157 38.4739 329.277 63.2233C330.397 87.9786 351.451 107.088 376.197 105.821C400.728 104.553 419.638 83.7232 418.528 59.1881Z" fill="white"/>
<path d="M172.93 1.71092C186.817 1.7048 222.916 0.308765 234.164 3.95198C244.031 7.1727 252.197 14.2142 256.836 23.4968C261.728 33.2936 262.48 44.6458 258.922 55.0059C254.802 66.952 247.399 73.3384 236.334 78.6593L264.492 120.902L245.06 121.006C234.224 102.949 220.452 84.4394 209.062 66.4744L209.407 65.6356L211.634 65.5376C221.474 65.5865 229.846 66.1744 237.769 58.6553C242.409 54.2467 244.803 47.9889 244.775 41.6026C244.746 35.0387 242.083 28.7564 237.381 24.1642C231.047 18.0166 223.513 17.7288 215.211 17.7104C206.503 17.686 197.786 17.79 189.079 17.8635L188.994 120.921H172.931L172.93 1.71092Z" fill="white"/>
<path d="M536.872 0.247314C538.917 1.64337 593.939 110.389 599.229 120.926L581.154 120.969C574.712 105.245 564.052 88.8479 557.004 73.2402C554.843 69.5786 553.129 65.0292 550.936 61.4472C547.391 55.6609 544.458 45.3742 537.9 42.9801C536.082 43.4638 533.308 44.1496 532.243 45.7905C527.583 52.9606 523.597 61.3431 519.672 68.9234L492.853 120.939C486.981 121.018 480.84 120.871 474.943 120.816C495.088 80.5817 517.052 40.4329 536.872 0.247314Z" fill="white"/>
<path d="M61.5146 0.174072C63.9626 2.36612 118.91 111.277 123.482 120.896L105.399 120.988C103.776 117.43 101.933 113.781 100.109 110.266C88.9636 88.8052 78.7246 66.5847 66.4908 45.7479C65.6838 44.3703 63.9001 43.7151 62.4961 43.1824C60.3977 43.5131 58.0232 44.0396 56.7931 45.9868C51.9198 53.6957 47.9337 62.17 43.7682 70.3136C35.0992 87.1152 26.5887 103.996 18.2375 120.957H0C6.21306 109.409 12.5021 96.2569 18.54 84.4517L61.5146 0.174072Z" fill="white"/>
<path d="M832.248 0.186279C835.04 2.73347 888.488 109.813 894.054 120.921L876.138 120.902L850.788 70.9626C846.692 62.9598 842.075 53.0772 836.999 45.6744C836.062 44.3029 834.146 43.6048 832.603 43.0415C829.688 43.3476 828.427 43.813 826.908 46.4092C822.114 54.6263 817.895 63.3762 813.591 71.8688L788.786 120.927L770.674 120.908C775.873 109.238 784.812 92.9198 790.837 81.084L832.248 0.186279Z" fill="white"/>
<path d="M650.583 1.71072L666.815 1.68628L666.864 104.804L725.511 104.902L725.492 120.798C720.037 121.306 705.85 120.957 700.002 120.951L650.626 120.908L650.583 1.71072Z" fill="white"/>
</svg>
